<?xml version="1.0" encoding="UTF-8" standalone="no"?>
<svg version="1.1"
     width="100"
     height="100"
     viewBox="0 0 100 100"
     baseProfile="full"
     xmlns="http://www.w3.org/2000/svg"
     preserveAspectRatio="xMidYMid meet">

<g transform="translate(0,100) scale(0.1,-0.1)"
fill="#44444A" stroke="none">
<path d="M393 985 c-249 -54 -422 -305 -384 -555 32 -216 205 -389 421 -421 265 -41 520 151 561 421 39 253 -136 502 -388 555 -82 18 -129 18 -210 0z m177 -46 c240 -39 408 -268 370 -506 -39 -243 -268 -411 -507 -373 -243 39 -411 268 -373 507 34 211 208 366 430 382 8 0 44 -4 80 -10z"/>
<path d="M419 737 c-77 -51 -96 -150 -44 -229 l25 -37 -48 -3 -47 -3 -33 -94 c-18 -52 -30 -103 -26 -113 5 -17 22 -18 255 -18 220 0 250 2 256 16 6 18 -32 156 -54 192 -10 17 -23 22 -53 22 -22 0 -40 1 -40 3 0 1 11 24 25 51 30 60 31 97 5 150 -40 84 -146 114 -221 63z m160 -33 c34 -28 57 -89 48 -127 -7 -26 -114 -177 -125 -177 -13 0 -114 142 -123 172 -12 44 0 85 36 124 29 30 38 34
83 34 40 0 57 -6 81 -26z m-120 -309 c18 -25 36 -45 41 -45 5 0 24 20 42 45 32 42 35 44 85 45 48 0 52 -2 61 -30 l11 -29 -51 -3 c-74 -4 -77 -28 -3 -28 55 0 56 -1 71 -35 7 -19 14 -37 14 -40 0 -3 -47 -5 -105 -5 l-105 0 0 25 c0 16 -6 25 -15 25 -9 0 -15 -9 -15 -25 l0 -25 -110 0 c-60 0 -110 2 -110 4 0 1 5 17 11 35 10 29 14 31 59 31 27 0 55 3 64 6 32 12 15 24 -34 24 -56 0 -69 14
-50 49 8 17 20 21 59 21 45 0 49 -2 80 -45z"/>
<path d="M450 660 c-30 -30 -27 -83 6 -109 34 -27 57 -26 90 2 54 47 24 127 -47 127 -16 0 -38 -9 -49 -20z m90 -31 c23 -41 -35 -90 -68 -57 -13 13 -16 60 -5 71 15 16 63 6 73 -14z"/>
</g>
</svg>
