<?xml version="1.0" standalone="no"?>

<svg xmlns="http://www.w3.org/2000/svg"
 width="62.000000pt" height="62.000000pt" viewBox="0 0 62.000000 62.000000"
 preserveAspectRatio="xMidYMid meet">

<g transform="translate(0.000000,62.000000) scale(0.100000,-0.100000)"
fill="#000000" stroke="none">
<path d="M244 611 c-97 -25 -177 -92 -217 -180 -29 -63 -28 -178 0 -242 44
-97 123 -159 229 -179 106 -21 217 19 288 102 125 146 75 388 -97 472 -56 28
-151 40 -203 27z m134 -34 c231 -60 283 -368 84 -496 -253 -162 -546 133 -381
383 37 55 76 85 144 108 61 21 86 22 153 5z"/>
<path d="M150 305 l0 -116 153 3 152 3 3 113 3 112 -156 0 -155 0 0 -115z
m220 40 c-30 -30 -59 -55 -65 -55 -6 0 -35 25 -65 55 l-54 55 119 0 119 0 -54
-55z m-157 -3 l37 -38 -40 -39 -40 -39 0 77 c0 42 1 77 3 77 2 0 20 -17 40
-38z m217 -39 l0 -67 -35 34 -35 34 32 33 c18 18 33 33 35 33 2 0 3 -30 3 -67z
m-124 -33 c13 0 26 5 30 11 6 11 74 -46 74 -63 0 -4 -50 -8 -112 -8 l-112 0
39 40 c26 27 42 37 49 30 6 -6 20 -10 32 -10z"/>
</g>
</svg>
