<?xml version="1.0" standalone="no"?>
<svg xmlns="http://www.w3.org/2000/svg"
 width="63.000000pt" height="63.000000pt" viewBox="0 0 63.000000 63.000000"
 preserveAspectRatio="xMidYMid meet">

<g transform="translate(0.000000,63.000000) scale(0.100000,-0.100000)"
fill="#44444A" stroke="none">
<path d="M232 615 c-61 -17 -132 -62 -160 -103 -50 -70 -65 -116 -66 -192 -1
-66 3 -84 32 -142 54 -111 153 -172 277 -172 210 0 356 199 297 405 -44 151
-224 248 -380 204z m199 -42 c57 -26 110 -79 140 -140 19 -37 24 -64 24 -118
-1 -89 -28 -148 -97 -210 -115 -104 -279 -96 -389 18 -173 180 -31 489 217
473 33 -2 80 -12 105 -23z"/>
<path d="M191 444 c-26 -32 -28 -92 -5 -137 20 -40 90 -114 126 -133 38 -20
98 -17 126 6 29 24 26 46 -11 74 -26 19 -29 19 -56 3 -41 -24 -55 -22 -89 17
-43 49 -49 74 -23 92 25 18 27 46 5 79 -21 32 -47 32 -73 -1z"/>
</g>
</svg>
